<svg xmlns="http://www.w3.org/2000/svg" data-name="Layer 1" viewBox="0 0 32 32"><path d="M19.27734,1.5H12.72266a.49971.49971,0,0,0-.5.5V16.772H8.61572a.5.5,0,0,0-.35889.84814l7.38428,7.603a.5.5,0,0,0,.71777,0l7.38428-7.603a.5.5,0,0,0-.35889-.84814H19.77734V2A.49971.49971,0,0,0,19.27734,1.5Zm2.92432,16.272L16,24.15723,9.79834,17.772h2.92432a.49971.49971,0,0,0,.5-.5V2.5h5.55469V17.272a.49971.49971,0,0,0,.5.5Z"/><path d="M2,30.5H30a.49971.49971,0,0,0,.5-.5V20.375a.49971.49971,0,0,0-.5-.5H26a.49971.49971,0,0,0-.5.5V25.5H6.5V20.375a.49971.49971,0,0,0-.5-.5H2a.49971.49971,0,0,0-.5.5V30A.49971.49971,0,0,0,2,30.5Zm.5-9.625h3V26a.49971.49971,0,0,0,.5.5H26a.49971.49971,0,0,0,.5-.5V20.875h3V29.5H2.5Z"/></svg>